<?xml version="1.0" encoding="utf-8"?>
<svg version="1.1" id="city" xmlns="http://www.w3.org/2000/svg" xmlns:xlink="http://www.w3.org/1999/xlink" x="0px" y="0px"
	 width="2000px" height="800px" viewBox="0 0 2000 800" enable-background="new 0 0 2000 800" xml:space="preserve">
<polygon id="mountains" opacity="0.25" fill="#1f1f1f" points="0,800 90,740 140,640 240,700 320,500 420,700 480,570 600,690 
	750,450 910,690 1200,800 "/>
<polygon id="building1" opacity="0.25" fill="#1f1f1f" points="1536.2,397.8 1520,800 1360,800 1320,390 "/>
<g id="phonemast">
	<polygon fill="#1f1f1f" points="304.6,783.1 411,288.3 453.6,287 329.1,788.7 	"/>
	<polygon fill="#1f1f1f" points="334.2,322.4 332,335.3 499.2,374.4 505.3,354.7 	"/>
	<polygon fill="#1f1f1f" points="322.8,365.2 321.7,376.7 489.3,417.5 495.4,397.8 	"/>
	<polygon fill="#1f1f1f" points="482.1,459 484.7,447.8 317.1,407 311,426.7 	"/>
	<path fill="none" stroke="#1f1f1f" stroke-width="4.9223" stroke-miterlimit="10" d="M312.8,423.4c-5.6,6.8-13.2,11.8-19.6,17.7
		c-10.6,9.7-18.9,21.4-29.2,31.3c-24.7,23.7-50.2,35.3-82.6,44.6c-23.2,6.7-57.2,19.3-75.7,35.3C86.8,568.6,74.7,583.5,74,608
		c-1.2,41.2,28.1,64.8,62.5,82.4c35,18,73.8,32.4,111.2,45.1c58.3,19.8,117,41.9,176.2,58.5"/>
	<path fill="none" stroke="#1f1f1f" stroke-width="4.9223" stroke-miterlimit="10" d="M315.8,424.2c-9.3,0-18.3-0.1-26,6.2
		c-10.6,8.7-19.3,23-26.6,34.3c-16.9,26.3-27.3,55.8-37.8,85c-10,27.6-26,55.4-33.3,83.1c-7.4,28.3-27.7,102.4-72.5,70.7
		c-35.5-25.2,15.7-33.9,37.4-26c44.5,16.2,66.8,68.5,101,98.5"/>
	<path fill="none" stroke="#1f1f1f" stroke-width="4.9223" stroke-miterlimit="10" d="M481.4,449.4c5.4-3.4,14.1,30.5,18.1,40.5
		c8.6,21.2,68.1,69.3,84,78.5c17.8,10.3,100.2,86.8,128.7,111.8c36.8,32.3,75.9,61.1,117.2,87.3"/>
	<path fill="none" stroke="#1f1f1f" stroke-width="4.9223" stroke-miterlimit="10" d="M479.9,455.5c-0.1,5.3,6.2,18,10.1,29.3
		c9.3,26.6,19.3,53.4,33.6,77.7c11.1,18.8,24.4,34.6,39,50.9c22,24.6,39.3,52.9,64.1,75c26.1,23.2,54.7,41.3,84.4,59.3
		c10.6,6.4,22.2,16.2,34.4,19.1"/>
</g>
<path id="building2" opacity="0.25" fill="#1f1f1f" d="M1670,355.8l10,104.2l-120-10l10,350h310l10-440L1670,355.8z M1674,498l-6,27
	l-30-3l-3-29.7L1674,498z M1580,490l38,2v34h-31L1580,490z M1641,666h-32l-4-33h37L1641,666z M1668,583h-36l-6-34l41,1L1668,583z
	 M1727,498v34h-32l-3-34H1727z M1685,584v-38l35,5.1l7,25.9L1685,584z"/>
<polygon id="foreground" fill="#1f1f1f" points="2001,801 1801,756 1169.2,775.7 636,751 201,756 1,801 "/>
<g id="barbwire">
	<g>
		<path fill="none" stroke="#1f1f1f" stroke-width="4" stroke-miterlimit="10" d="M750,774.3c2,0.1,4.6,0,7.6-0.2
			c1.5-0.1,3.1-0.2,4.8-0.4c1.7-0.3,3.5-0.5,5.3-0.8c1.8-0.3,3.8-0.6,5.7-1c2-0.4,4-0.9,6-1.4c2-0.5,4.1-0.9,6.2-1.5
			c2.1-0.6,4.2-1.2,6.4-1.7c17.1-4.7,34.6-11,46.6-12.5c20.8-2.8,37.8-5,54.6-6.9c2.1-0.2,4.2-0.5,6.3-0.7c2.1-0.2,4.2-0.4,6.3-0.6
			c2.1-0.2,4.2-0.5,6.4-0.6c2.1-0.2,4.3-0.4,6.5-0.5c1.1-0.1,2.2-0.2,3.3-0.3c1.1-0.1,2.2-0.1,3.4-0.2c2.3-0.1,4.6-0.3,6.9-0.4
			c1.2-0.1,2.4-0.1,3.6-0.2c1.2-0.1,2.4-0.1,3.7-0.2c2.5-0.1,5-0.3,7.6-0.4c10.9-0.7,19.1-1.1,25.7-1.7c3.3-0.3,6.3-0.6,9.1-0.9
			c2.8-0.3,5.4-0.5,8-0.8c5.2-0.5,10.5-1.1,17.1-1.5c6.7-0.3,14.8-0.7,25.8-0.7"/>
		<path fill="none" stroke="#1f1f1f" stroke-width="4" stroke-linejoin="bevel" stroke-miterlimit="10" d="M885.6,760.4
			c2-3.9,1.6-11.9,5-14.8c1.8-1.5,3.5,5.7,5.6,3.8c1.3-1.2,2-11.6,4.2-14.4"/>
		<path fill="none" stroke="#1f1f1f" stroke-width="4" stroke-linejoin="bevel" stroke-miterlimit="10" d="M878.8,739.1
			c6.9,2.9,9.2,9.2,11.5,12c2,2.5,2.8-8.6,4.8-7.7c1.2,0.5,2.9,3,4.7,5.6c1.7,2.6,3.5,5.4,4.7,6.5"/>
		<path fill="none" stroke="#1f1f1f" stroke-width="4" stroke-linejoin="bevel" stroke-miterlimit="10" d="M807.4,749.3
			c-1.1,1.9-1.4,5.1-1.7,8.1c-0.3,3-0.8,6-2.4,7.5c-1.7,1.6-5-5.2-6.6-4c-1.4,1-1,13-3,15.9"/>
		<path fill="none" stroke="#1f1f1f" stroke-width="4" stroke-linejoin="bevel" stroke-miterlimit="10" d="M814,769.8
			c-2.7-1.1-5-3-7-5c-2-2.1-3.6-4.2-4.8-5.5c-2.1-2.3-2.5,10-4.2,8.6c-0.9-0.8-2.8-3.2-4.8-5.8c-2-2.6-4-5.3-5.3-6.3"/>
		<path fill="none" stroke="#1f1f1f" stroke-width="4" stroke-linejoin="bevel" stroke-miterlimit="10" d="M973.5,731.1
			c3.4,3.3,5.7,11.9,9.7,13.6c2.1,0.9,2.8-8.2,4.8-7.7c1.7,0.4,5.4,12.7,8.1,14.8"/>
		<path fill="none" stroke="#1f1f1f" stroke-width="4" stroke-linejoin="bevel" stroke-miterlimit="10" d="M975.3,752.6
			c4-4.1,5.6-11,6.9-14.3c1.2-2.9,5.4,6.7,6,6.6c1.5-0.3,4.2-13.3,6.2-16.1"/>
	</g>
	<g>
		<path fill="none" stroke="#1f1f1f" stroke-width="4" stroke-miterlimit="10" d="M1033.2,738.1c4,0.2,10.2-0.2,17.6-0.8
			c7.4-0.7,16-1.4,24.9-2.2c8.9-0.7,18-1.3,26.4-1.5c8.4-0.2,16.1,0.1,22,1c10.4,1.7,19.7,3.2,28.7,4.2c2.2,0.2,4.5,0.5,6.7,0.7
			c2.2,0.1,4.4,0.3,6.6,0.4c2.2,0.1,4.3,0.1,6.5,0.1l3.3,0l3.3-0.2l3.3-0.2c1.1-0.1,2.2-0.1,3.3-0.3c2.2-0.3,4.4-0.6,6.6-1
			c4.4-0.9,8.9-1.9,13.3-3.5c8.9-3,17.7-7.3,26.9-12.3c4.9-2.6,9-4.9,12.7-6.9c0.9-0.5,1.8-1,2.7-1.4c0.8-0.4,1.6-0.8,2.4-1.2
			c0.8-0.4,1.5-0.8,2.3-1.1c0.7-0.4,1.5-0.6,2.2-0.9c5.7-2.3,10.5-3.5,15.6-4.6c1.3-0.3,2.6-0.6,3.9-0.9c1.3-0.3,2.7-0.6,4.1-0.9
			c1.4-0.3,2.9-0.7,4.4-1c1.5-0.4,3.1-0.8,4.7-1.3c6.6-1.9,14.5-4.6,24.6-9.5"/>
		<path fill="none" stroke="#1f1f1f" stroke-width="4" stroke-linejoin="bevel" stroke-miterlimit="10" d="M1169.5,751.7
			c1.4-1.8,2.3-4.7,3.3-7.5c0.5-1.4,1-2.7,1.6-3.9c0.6-1.1,1.3-2.1,2.2-2.8c1.9-1.4,3.1,5.9,5.5,4.1c0.7-0.6,1.3-3.4,1.9-6.5
			c0.6-3.1,1.2-6.5,2.1-7.9"/>
		<path fill="none" stroke="#1f1f1f" stroke-width="4" stroke-linejoin="bevel" stroke-miterlimit="10" d="M1166,729.6
			c5.9,3.9,7.7,10.3,9.8,13.4c0.9,1.3,1.9-0.8,2.8-3.1c0.9-2.3,1.7-4.8,2.7-4.3c1.2,0.6,2.9,3.2,4.7,5.7c1.8,2.6,3.7,5.2,5.2,6.3"/>
		<path fill="none" stroke="#1f1f1f" stroke-width="4" stroke-linejoin="bevel" stroke-miterlimit="10" d="M1095,720.9
			c-3.3,3.1-4,11.9-7.8,14.2c-2,1.2-3.8-6.2-5.7-5.4c-1.6,0.7-3.6,12.5-6.1,15"/>
		<path fill="none" stroke="#1f1f1f" stroke-width="4" stroke-linejoin="bevel" stroke-miterlimit="10" d="M1096.4,742.4
			c-4.6-3.4-7.2-9.9-9-13c-1.6-2.7-4.7,9.2-6,7.5c-1.5-1.9-5.4-11.3-7.7-13.9"/>
		<path fill="none" stroke="#1f1f1f" stroke-width="4" stroke-linejoin="bevel" stroke-miterlimit="10" d="M1251.8,700.6
			c1.1,0.5,2.2,1.4,3.3,2.4c1.1,1,2.1,2.3,3.1,3.5c1,1.2,2,2.4,3,3.3c0.5,0.5,1,0.9,1.4,1.2c0.5,0.3,1,0.6,1.5,0.7
			c1,0.3,1.4-1.8,1.7-4c0.4-2.2,0.8-4.4,1.8-4.3c0.9,0.1,2.6,3.1,4.4,6.3c1.9,3.2,3.9,6.6,5.5,7.4"/>
		<path fill="none" stroke="#1f1f1f" stroke-width="4" stroke-linejoin="bevel" stroke-miterlimit="10" d="M1259.4,720.8
			c0.2-0.6,0.4-1.2,0.6-1.9c0.2-0.6,0.4-1.3,0.5-2c0.3-1.3,0.5-2.8,0.7-4.1c0.4-2.8,0.6-5.5,1-7.2c0.3-1.5,2-0.1,3.4,1.7
			c1.5,1.8,2.9,4.1,3.2,4c0.7-0.2,1.3-3.7,2-7.4c0.7-3.7,1.4-7.8,2.2-9.3"/>
	</g>
	<g>
		<path fill="none" stroke="#1f1f1f" stroke-width="4" stroke-miterlimit="10" d="M1311.9,692.9c3.7-1.6,9.1-4.8,15.2-9.1
			c6.1-4.3,12.9-9.6,20.3-14.7c7.3-5.1,15.2-10.1,23.2-13.5c2-0.9,3.9-1.6,5.7-2.4c1.9-0.7,3.7-1.4,5.4-2c3.5-1.2,6.8-2.2,9.8-2.8
			c20.6-4.4,37.6-7.2,54.3-8.8c2.1-0.2,4.2-0.4,6.3-0.6c2.1-0.1,4.2-0.2,6.3-0.3c1-0.1,2.1-0.1,3.2-0.2c1.1-0.1,2.2-0.1,3.3-0.1
			c2.2-0.1,4.4-0.2,6.7-0.2c9-0.4,18.4-1,28.8-2c22-1.9,32.4-3.7,42.8-5.4c10.4-1.7,20.8-3.4,42.7-5.2"/>
		<path fill="none" stroke="#1f1f1f" stroke-width="4" stroke-linejoin="bevel" stroke-miterlimit="10" d="M1438.3,652.1
			c1.9-4,1.4-12,4.9-14.7c1.8-1.5,3.4,5.8,5.5,3.9c0.6-0.6,1.2-3.5,1.9-6.6c0.7-3,1.6-6.3,2.8-7.6"/>
		<path fill="none" stroke="#1f1f1f" stroke-width="4" stroke-linejoin="bevel" stroke-miterlimit="10" d="M1431.3,630.9
			c3.5,1.4,5.8,3.7,7.5,6c1.7,2.3,2.9,4.6,4,6c1,1.2,1.7-0.9,2.4-3.2c0.7-2.3,1.5-4.9,2.5-4.4c1.2,0.6,2.8,3,4.5,5.7
			c1.6,2.7,3.2,5.6,4.4,6.8"/>
		<path fill="none" stroke="#1f1f1f" stroke-width="4" stroke-linejoin="bevel" stroke-miterlimit="10" d="M1358.5,647.2
			c-1.9,4.4,1.4,12.6-0.9,16.4c-1.2,2-6.3-3.6-7.7-2c-1.2,1.4,3,12.7,2.2,16"/>
		<path fill="none" stroke="#1f1f1f" stroke-width="4" stroke-linejoin="bevel" stroke-miterlimit="10" d="M1368.9,666
			c-5.4-1.2-10.7-5.8-13.9-7.7c-1.4-0.8-1.4,1.8-1.2,4.5c0.1,2.7,0.4,5.5-0.6,5.1c-1.1-0.5-3.7-2.3-6.4-4c-2.7-1.8-5.7-3.6-7.3-4"/>
		<path fill="none" stroke="#1f1f1f" stroke-width="4" stroke-linejoin="bevel" stroke-miterlimit="10" d="M1525.8,622.6
			c3.5,3.1,6.3,11.6,10.5,13c2.2,0.8,2.3-8.4,4.3-8c1.7,0.3,6.1,12.3,9,14.3"/>
		<path fill="none" stroke="#1f1f1f" stroke-width="4" stroke-linejoin="bevel" stroke-miterlimit="10" d="M1528.7,644
			c3.8-4.3,5-11.2,6.2-14.6c1-3,5.8,6.3,6.4,6.2c1.5-0.4,3.4-13.5,5.1-16.5"/>
	</g>
	<g>
		<path fill="none" stroke="#1f1f1f" stroke-width="4" stroke-miterlimit="10" d="M1585.8,625.6c4-0.1,10.1-0.9,17.4-2.2
			c3.7-0.6,7.6-1.3,11.8-2.1c4.1-0.7,8.5-1.6,12.9-2.2c8.8-1.4,17.9-2.8,26.2-3.7c4.2-0.4,8.2-0.8,11.9-0.9c3.7-0.1,7.1,0,10.2,0.2
			c10.5,1,19.9,1.8,28.9,2.6c9,0.9,17.5,1.9,25.9,2.6c16.9,1.2,33.8,2.8,54.7,3c11.3,0.2,19.4-0.2,26.1-0.5
			c6.7-0.4,11.9-0.8,17.2-1.2c5.2-0.4,10.5-0.8,17.1-0.8c6.6-0.1,14.7,0.1,25.6,1.3"/>
		<path fill="none" stroke="#1f1f1f" stroke-width="4" stroke-linejoin="bevel" stroke-miterlimit="10" d="M1720.9,630.7
			c2.8-3.4,4.1-11.3,8-13.4c2.1-1.1,2.3,6.3,4.8,4.8c1.5-0.9,4.2-11,6.8-13.4"/>
		<path fill="none" stroke="#1f1f1f" stroke-width="4" stroke-linejoin="bevel" stroke-miterlimit="10" d="M1718.8,608.4
			c6,4.4,7.1,11,8.7,14.2c1.5,2.8,4.5-7.9,6.3-6.6c2.2,1.5,4.9,11,7,13.6"/>
		<path fill="none" stroke="#1f1f1f" stroke-width="4" stroke-linejoin="bevel" stroke-miterlimit="10" d="M1646,603.4
			c-3,3.4-3,12.2-6.6,14.8c-1.9,1.4-4.3-5.8-6.1-4.9c-1.6,0.8-2.6,12.8-4.8,15.4"/>
		<path fill="none" stroke="#1f1f1f" stroke-width="4" stroke-linejoin="bevel" stroke-miterlimit="10" d="M1649.2,624.8
			c-4.9-3-8-9.3-10-12.2c-1.8-2.6-3.9,9.5-5.4,8c-1.7-1.8-6.3-10.9-8.8-13.2"/>
		<path fill="none" stroke="#1f1f1f" stroke-width="4" stroke-linejoin="bevel" stroke-miterlimit="10" d="M1812.5,611.6
			c3.3,3.3,5.4,12,9.4,13.8c2.1,0.9,3-8.2,5-7.6c1.7,0.4,5,12.8,7.6,15"/>
		<path fill="none" stroke="#1f1f1f" stroke-width="4" stroke-linejoin="bevel" stroke-miterlimit="10" d="M1813.8,633.1
			c4.1-4,5.8-10.8,7.3-14.1c1.3-2.9,5.3,6.8,5.8,6.7c1.5-0.3,4.5-13.2,6.6-16"/>
	</g>
	<g>
		<path fill="none" stroke="#1f1f1f" stroke-width="4" stroke-miterlimit="10" d="M1871.8,621.6c2,0.3,4.4,0.7,7.4,0.9
			c1.5,0.1,3,0.3,4.7,0.5c1.7,0.1,3.4,0.3,5.3,0.5c7.3,0.8,15.9,2.1,24.6,4.7c8.6,2.6,17.4,6.6,24.4,12.1c7,5.4,12.2,12.1,14.6,18
			c0.3,0.6,0.6,1.2,0.8,1.9c0.2,0.6,0.4,1.3,0.7,1.9c0.4,1.3,0.9,2.5,1.3,3.7c0.3,1.3,0.6,2.5,0.9,3.7c0.1,0.6,0.3,1.2,0.4,1.8
			c0.1,0.6,0.3,1.2,0.4,1.8c0.5,2.5,0.5,5,0.3,7.4c-0.1,1.2-0.3,2.3-0.4,3.5c-0.3,1.1-0.5,2.2-0.8,3.3c-2.5,8.7-7.4,15.5-13,21.3
			c-5.7,5.8-12.3,10.5-19.7,13.9c-3.7,1.6-7.6,3-11.8,3.6c-0.5,0.1-1.1,0.2-1.6,0.2c-0.5,0.1-1.1,0.2-1.6,0.2
			c-1.1,0.1-2.2,0.2-3.3,0.2c-1.1,0-2.3,0-3.4,0c-0.6,0-1.2,0-1.8,0c-0.6,0-1.2-0.1-1.8-0.1c-2.5-0.1-4.9-0.5-7.2-0.7
			c-1.1-0.2-2.2-0.4-3.3-0.6c-1.1-0.2-2.1-0.3-3.1-0.6c-4-0.8-7.4-1.7-10.6-2.5c-6.3-1.7-11.2-3.2-16.1-4.8
			c-9.8-3.3-19.7-6.8-39.1-17.2"/>
		<path fill="none" stroke="#1f1f1f" stroke-width="4" stroke-linejoin="bevel" stroke-miterlimit="10" d="M1939.2,695.5
			c0.9,1.7,3,3.9,4.6,6.2c1.7,2.3,3,4.8,2.7,7c-0.2,1.2-1.8,0.7-3.3,0.1c-1.6-0.5-3.1-1-3.3,0.3c-0.1,0.8,1.3,3.4,2.5,6.3
			c0.6,1.4,1.2,3,1.7,4.4c0.4,1.4,0.6,2.7,0.5,3.6"/>
		<path fill="none" stroke="#1f1f1f" stroke-width="4" stroke-linejoin="bevel" stroke-miterlimit="10" d="M1959.7,704.3
			c-3.5,2.1-6.9,2.2-9.7,1.8c-2.8-0.4-5.2-1.3-7-1.6c-1.5-0.3-0.5,1.7,0.5,3.9c1,2.2,2,4.7,0.9,4.9c-1.3,0.3-4.1-0.6-7-1.9
			c-2.8-1.2-5.7-2.7-7.2-3.1"/>
		<path fill="none" stroke="#1f1f1f" stroke-width="4" stroke-linejoin="bevel" stroke-miterlimit="10" d="M1938.9,625.3
			c-5,0.5-10.1,7.6-14.6,7.8c-1.2,0.1-1.3-1.8-1.5-3.6c-0.2-1.8-0.4-3.8-1.5-3.8c-0.9-0.1-3.1,2.4-5.3,5.1c-2.3,2.7-4.6,5.6-6.1,6.4
			"/>
		<path fill="none" stroke="#1f1f1f" stroke-width="4" stroke-linejoin="bevel" stroke-miterlimit="10" d="M1928.2,644
			c-0.8-2.6-1-5.6-1-8.5c0-2.8,0.1-5.5,0-7.3c-0.1-1.6-2.3-0.2-4.5,1.4c-2.2,1.7-4.2,3.5-4.5,2.5c-0.3-1.2-0.3-4.4-0.7-7.6
			c-0.3-3.2-0.8-6.7-1.6-8.3"/>
		<path fill="none" stroke="#1f1f1f" stroke-width="4" stroke-linejoin="bevel" stroke-miterlimit="10" d="M1870,732.4
			c-1.1-2.1-1.4-5.4-1.8-8.5c-0.4-3.2-0.8-6.1-2.3-7.7c-1.5-1.6-5.7,6.5-7.4,5.3c-0.7-0.5-0.6-3.9-0.6-7.6c0.1-3.7,0.2-7.6-0.6-9.1"
			/>
		<path fill="none" stroke="#1f1f1f" stroke-width="4" stroke-linejoin="bevel" stroke-miterlimit="10" d="M1875.7,711.6
			c-4.8,2.6-8.8,8.2-11.3,10.9c-1.1,1.1-1.7-0.9-2.1-3.3c-0.4-2.4-0.5-5-0.8-5c-0.7-0.1-3,2.5-5.5,5.4c-2.5,2.9-5.2,6-6.7,6.8"/>
	</g>
	<g>
		<path fill="none" stroke="#1f1f1f" stroke-width="4" stroke-miterlimit="10" d="M1818.7,700.3c-3.4-2.1-9-4.7-15.8-7.6
			c-6.8-2.9-14.9-6.2-23.1-9.5c-4.1-1.6-8.3-3.2-12.5-4.6c-4.1-1.4-8.2-2.7-12.1-3.6c-1-0.3-1.9-0.4-2.8-0.6
			c-0.5-0.1-0.9-0.2-1.4-0.3c-0.5-0.1-1-0.1-1.5-0.2c-1.9-0.3-3.8-0.6-5.6-0.9c-1.8-0.3-3.5-0.7-5.1-1c-1.6-0.3-3.2-0.6-4.6-1
			c-2.5-0.6-5-1.3-7.4-1.8c-2.4-0.5-4.8-1-7.2-1.5c-1.2-0.2-2.3-0.5-3.5-0.7c-1.2-0.2-2.3-0.4-3.5-0.5c-2.3-0.4-4.6-0.7-6.8-1.1
			c-4.5-0.6-8.8-1-13.2-1.5c-4.3-0.3-8.6-0.6-12.9-0.8c-17.2-0.6-34.4,0.5-55.1,3.4c-21.9,3.1-32.1,5.3-42.4,7.3
			c-2.6,0.5-5.1,1-7.9,1.5c-2.8,0.5-5.7,1-9,1.5c-1.7,0.2-3.4,0.5-5.3,0.8c-1.9,0.3-3.9,0.5-6,0.9c-1.1,0.2-2.2,0.3-3.3,0.5
			c-1.1,0.2-2.3,0.4-3.5,0.6c-2.4,0.4-4.9,0.9-7.7,1.4"/>
		<path fill="none" stroke="#1f1f1f" stroke-width="4" stroke-linejoin="bevel" stroke-miterlimit="10" d="M1689.9,652.2
			c-2.9,3.5-4,11.4-7.8,13.6c-2,1.2-2.6-6.1-5.1-4.5c-1.5,1-3.5,11.2-5.8,13.8"/>
		<path fill="none" stroke="#1f1f1f" stroke-width="4" stroke-linejoin="bevel" stroke-miterlimit="10" d="M1692.3,674.4
			c-5.9-4.2-7.2-10.8-9.1-13.9c-0.8-1.4-1.9,0.6-3,2.8c-1.1,2.2-2.1,4.7-3,4.1c-2.2-1.4-5.6-10.6-8.1-13.1"/>
		<path fill="none" stroke="#1f1f1f" stroke-width="4" stroke-linejoin="bevel" stroke-miterlimit="10" d="M1757.4,689
			c3.7-2,7.6-9.9,12-10.5c2.3-0.4,0.9,7.2,2.9,7.2c1.7,0,8.5-9.8,11.9-11"/>
		<path fill="none" stroke="#1f1f1f" stroke-width="4" stroke-linejoin="bevel" stroke-miterlimit="10" d="M1763.3,668.2
			c3.5,4.8,3.3,11.8,3.7,15.4c0.2,1.5,2.1-0.1,4.1-1.9c2-1.8,4.1-3.6,4.3-2.6c0.3,1.2,0.3,4.3,0.3,7.6c0,3.2,0.1,6.6,0.5,8.2"/>
		<path fill="none" stroke="#1f1f1f" stroke-width="4" stroke-linejoin="bevel" stroke-miterlimit="10" d="M1599.7,681.5
			c-3.7-2.9-6.8-11.3-11-12.6c-2.2-0.7-2,8.5-4,8.2c-1.7-0.3-6.5-12.1-9.4-14"/>
		<path fill="none" stroke="#1f1f1f" stroke-width="4" stroke-linejoin="bevel" stroke-miterlimit="10" d="M1595.8,660.3
			c-3.6,4.4-4.5,11.4-5.5,14.9c-0.9,3.1-6-6.1-6.6-5.9c-1.4,0.5-2.9,13.6-4.6,16.7"/>
	</g>
	<g>
		<path fill="none" stroke="#1f1f1f" stroke-width="4" stroke-miterlimit="10" d="M1539.5,681.1c-4,0.5-10,2.1-17.1,4.3
			c-7.1,2.1-15.4,4.8-24.1,6.9c-8.7,2.1-17.9,3.7-26.6,3.9c-8.5,0.2-16.2-0.1-22.1-1.3c-20.7-3.8-37.3-7.8-53.8-11.7
			c-8.2-1.9-16.5-3.9-25.2-5.9c-2.2-0.5-4.4-1-6.6-1.5c-1.1-0.2-2.2-0.5-3.4-0.7c-1-0.2-2.1-0.5-3.3-0.8c-4.6-1.2-9.4-2.5-14.5-3.8
			c-21.5-5.3-32.1-6.7-42.6-7.9c-5.3-0.6-10.5-1.2-17.2-1.9c-6.7-0.8-14.8-1.8-25.9-2.9"/>
		<path fill="none" stroke="#1f1f1f" stroke-width="4" stroke-linejoin="bevel" stroke-miterlimit="10" d="M1407.3,674
			c-3.2,3-5.6,10.7-9.7,12.2c-2.2,0.8-1.4-6.6-4-5.5c-1.6,0.6-5.8,10.3-8.7,12.2"/>
		<path fill="none" stroke="#1f1f1f" stroke-width="4" stroke-linejoin="bevel" stroke-miterlimit="10" d="M1406.4,696.3
			c-5.5-5.1-5.5-11.8-6.7-15.2c-1-3-5.6,7.1-7.1,5.7c-1.9-1.8-3.2-11.5-4.9-14.5"/>
		<path fill="none" stroke="#1f1f1f" stroke-width="4" stroke-linejoin="bevel" stroke-miterlimit="10" d="M1479.8,708.6
			c1.7-1.7,2.6-4.7,3.4-7.7c0.9-3,1.8-5.8,3.6-7.2c1.9-1.4,4.5,5.7,6.4,4.7c1.6-0.8,1.9-12.9,3.8-15.7"/>
		<path fill="none" stroke="#1f1f1f" stroke-width="4" stroke-linejoin="bevel" stroke-miterlimit="10" d="M1477.2,687.2
			c2.3,1.5,4.2,3.9,5.9,6.2c1.6,2.3,3,4.6,4.1,6.1c1,1.3,2-1.1,2.8-3.7c0.9-2.6,1.6-5.2,2.4-4.5c0.9,0.9,2.6,3.5,4.5,6.1
			c1.9,2.6,4,5.4,5.4,6.4"/>
		<path fill="none" stroke="#1f1f1f" stroke-width="4" stroke-linejoin="bevel" stroke-miterlimit="10" d="M1314.3,675.4
			c-2.4-4-2.6-12.9-6.2-15.6c-1.9-1.4-4.7,7.4-6.5,6.5c-1.5-0.8-2.5-13.5-4.9-16.2"/>
		<path fill="none" stroke="#1f1f1f" stroke-width="4" stroke-linejoin="bevel" stroke-miterlimit="10" d="M1317.9,654.1
			c-5,2.9-8.2,9.2-10.3,12.2c-1.8,2.6-3.8-7.7-4.4-7.7c-1.6,0-7,12.1-9.5,14.5"/>
	</g>
	<g>
		<path fill="none" stroke="#1f1f1f" stroke-width="4" stroke-miterlimit="10" d="M1257.1,657.8c-4-0.6-10.3-0.7-17.7-0.2
			c-7.4,0.6-16.2,1.8-24.5,4.5c-4.1,1.3-8.1,3.2-11.2,5.7c-1.5,1.2-2.7,2.6-3.7,4c-1,1.5-1.5,3.1-1.9,4.7c-0.4,1.6-0.3,3.2-0.2,4.8
			c0.2,1.7,0.5,3.3,0.9,4.9c0.4,1.6,0.9,3.2,1.3,4.7c0.6,1.5,1,2.9,1.4,4.2c3.2,9.3,8.8,17.1,15.1,23.6c6.4,6.4,13.3,11.7,20.8,16.1
			c15,8.8,31.7,15,52.7,18.8c11.1,2,19.4,2.6,26.3,2.9c6.8,0.2,12.2,0,17.6-0.3c5.3-0.4,10.6-1.1,17.3-1.5c3.4-0.3,7.1-0.7,11.3-1
			c2.1-0.2,4.4-0.3,6.8-0.5c2.4-0.2,5-0.5,7.7-0.7"/>
		<path fill="none" stroke="#1f1f1f" stroke-width="4" stroke-linejoin="bevel" stroke-miterlimit="10" d="M1222.9,739.2
			c2.3-0.7,4.6-2.6,7-4.3c2.4-1.7,4.7-3.3,6.9-3.4c2.3-0.1-0.7,6.7,2.3,6.5c0.9-0.1,3-2.1,5.3-4.3c2.3-2.2,4.6-4.6,6.2-5.2"/>
		<path fill="none" stroke="#1f1f1f" stroke-width="4" stroke-linejoin="bevel" stroke-miterlimit="10" d="M1232.5,719.1
			c1.3,3.3,1.4,6.5,1.2,9.4c-0.2,2.8-0.7,5.3-0.7,7.2c0,1.6,2,0.4,4-1c2-1.4,4.1-3,4.6-2.1c0.6,1.2,0.6,4.1,0.7,7.3
			c0,3.1,0.1,6.5,0.6,8.1"/>
		<path fill="none" stroke="#1f1f1f" stroke-width="4" stroke-linejoin="bevel" stroke-miterlimit="10" d="M1210.4,679.4
			c-1.2-1.1-3.1-3.5-4.5-6.1c-1.4-2.6-2.3-5.4-1.3-7.3c0.5-1,2.1,0,3.5,1c1.4,1.1,2.7,2.4,3.3,1.7c0.5-0.5,0.2-3.8,0.2-7.3
			c0-3.5,0.2-7.3,1.3-8.8"/>
		<path fill="none" stroke="#1f1f1f" stroke-width="4" stroke-linejoin="bevel" stroke-miterlimit="10" d="M1192.2,667.7
			c3.1-1.7,6.5-1.3,9.1-0.3c1.3,0.5,2.5,1.2,3.4,1.9c1,0.7,1.8,1.3,2.5,1.8c1.1,0.9,0.8-1.5,0.7-4.2c-0.1-2.6,0-5.5,1-4.9
			c1.1,0.6,3.2,2.9,5.2,5.3c1,1.2,2,2.5,2.8,3.6c0.9,1.1,1.6,2,2.2,2.5"/>
		<path fill="none" stroke="#1f1f1f" stroke-width="4" stroke-linejoin="bevel" stroke-miterlimit="10" d="M1318.2,745.8
			c2.9,3.6,4.4,12.4,8.5,14.5c2.2,1,3.4-8.1,5.3-7.5c0.8,0.2,2.1,3.4,3.5,6.9c1.4,3.4,3.1,7,4.5,8"/>
		<path fill="none" stroke="#1f1f1f" stroke-width="4" stroke-linejoin="bevel" stroke-miterlimit="10" d="M1317.6,767.4
			c4.8-3.6,6.9-10.3,8.5-13.6c0.7-1.4,1.9,0.3,3.1,2.4c1.2,2.1,2.3,4.5,2.6,4.5c0.8-0.1,2-3.4,3.2-7c1.2-3.6,2.4-7.6,3.4-9"/>
	</g>
	<g>
		<path fill="none" stroke="#1f1f1f" stroke-width="4" stroke-miterlimit="10" d="M1377.4,752.4c2-0.1,4.5-0.3,7.5-0.7
			c2.9-0.5,6.3-1.1,9.9-1.8c3.6-0.7,7.6-1.6,11.7-2.5c4.1-0.9,8.4-1.9,12.7-2.9c17.4-4,35.8-7.9,47.9-7.6c10.7,0.2,20.2,1.5,29.1,3
			c4.5,0.7,8.7,1.6,13,2.4c4.2,0.9,8.4,1.7,12.5,2.6c8.3,1.7,16.6,3.5,25.5,5.1c8.9,1.6,18.3,3,28.9,3.8c2.8,0.3,5.4,0.4,7.9,0.5
			c1.2,0.1,2.4,0.1,3.6,0.2c1.2,0,2.3,0,3.4,0c2.2,0,4.2,0,6.1,0c1.9-0.1,3.7-0.2,5.5-0.3c3.5-0.1,6.4-0.6,9.3-0.9
			c2.8-0.4,5.5-0.7,8.1-1c2.6-0.3,5.3-0.7,8.1-1c0.7-0.1,1.4-0.2,2.1-0.3c0.7-0.1,1.5-0.2,2.2-0.4c1.5-0.2,3.1-0.5,4.8-0.7
			c3.3-0.5,7-1,11.3-1.5c2.1-0.2,4.4-0.7,6.8-1.1c2.4-0.4,5-0.8,7.7-1.3"/>
		<path fill="none" stroke="#1f1f1f" stroke-width="4" stroke-linejoin="bevel" stroke-miterlimit="10" d="M1510.6,754.3
			c3.1-3.1,5.2-10.8,9.3-12.4c2.2-0.9,1.5,6.5,4.1,5.4c1.6-0.7,5.5-10.4,8.4-12.4"/>
		<path fill="none" stroke="#1f1f1f" stroke-width="4" stroke-linejoin="bevel" stroke-miterlimit="10" d="M1510.8,731.9
			c5.6,5,5.9,11.7,7.2,15c1.1,3,5.4-7.2,7-5.8c2,1.8,3.5,11.5,5.3,14.4"/>
		<path fill="none" stroke="#1f1f1f" stroke-width="4" stroke-linejoin="bevel" stroke-miterlimit="10" d="M1436.2,727.5
			c-2.8,3.6-2.2,12.4-5.6,15.2c-1.8,1.5-4.6-5.6-6.4-4.5c-1.5,0.9-1.8,12.9-3.9,15.7"/>
		<path fill="none" stroke="#1f1f1f" stroke-width="4" stroke-linejoin="bevel" stroke-miterlimit="10" d="M1440.9,748.6
			c-5.1-2.7-8.6-8.7-10.8-11.6c-2-2.5-3.3,9.8-4.9,8.3c-1.8-1.7-6.9-10.4-9.6-12.6"/>
		<path fill="none" stroke="#1f1f1f" stroke-width="4" stroke-linejoin="bevel" stroke-miterlimit="10" d="M1603.2,743.2
			c0.8,0.8,1.6,2,2.3,3.3c0.7,1.3,1.5,2.7,2.2,4.1c1.5,2.8,3.2,5.3,5.2,6.1c2.2,0.9,2.7-8.3,4.7-7.9c1.7,0.4,5.8,12.5,8.8,14.5"/>
		<path fill="none" stroke="#1f1f1f" stroke-width="4" stroke-linejoin="bevel" stroke-miterlimit="10" d="M1604.8,764.8
			c1.1-1,2-2.2,2.7-3.5c0.8-1.3,1.4-2.6,1.9-4c1.1-2.7,1.8-5.2,2.4-6.9c1.1-3,5.6,6.5,6.2,6.4c1.5-0.4,3.8-13.4,5.6-16.3"/>
	</g>
	<g>
		<path fill="none" stroke="#1f1f1f" stroke-width="4" stroke-miterlimit="10" d="M1663,745.9c1-0.1,2.1-0.3,3.4-0.5
			c1.2-0.2,2.6-0.5,4-0.9c2.9-0.8,6.2-1.8,9.7-2.9c1.8-0.6,3.6-1.1,5.5-1.8c1.9-0.7,3.8-1.4,5.8-2.2c2-0.7,4-1.5,6-2.3
			c2-0.8,4.1-1.5,6.2-2.4c16.5-6.6,34-13.5,46-15.2c5.2-0.8,10.1-1.5,14.9-2.2c4.8-0.7,9.3-1.5,13.8-2.2c8.9-1.4,17.3-2.8,25.7-4.2
			c16.8-2.8,33.4-6,53.7-10.2c10.7-2.2,18.6-3.8,25.1-5.1c6.5-1.3,11.6-2.4,16.7-3.3c5.1-0.9,10.3-1.8,16.8-2.4
			c3.3-0.3,6.9-0.5,11.1-0.4c4.2,0.1,8.9,0.3,14.1,1.2"/>
		<path fill="none" stroke="#1f1f1f" stroke-width="4" stroke-linejoin="bevel" stroke-miterlimit="10" d="M1796.9,722.2
			c1.9-4,1.1-11.9,4.3-15c1.7-1.6,3.8,5.5,5.8,3.5c1.2-1.2,1.3-11.7,3.2-14.6"/>
		<path fill="none" stroke="#1f1f1f" stroke-width="4" stroke-linejoin="bevel" stroke-miterlimit="10" d="M1789.2,701.3
			c7,2.7,9.6,8.8,12.1,11.5c2.1,2.3,2.4-8.7,4.4-8c2.5,0.9,7.5,9.4,10.2,11.4"/>
		<path fill="none" stroke="#1f1f1f" stroke-width="4" stroke-linejoin="bevel" stroke-miterlimit="10" d="M1717.7,713.7
			c-2.1,4-0.1,12.5-3.1,15.9c-1.5,1.8-5.4-4.8-7-3.5c-1.3,1.1,0.2,13-1.4,16.2"/>
		<path fill="none" stroke="#1f1f1f" stroke-width="4" stroke-linejoin="bevel" stroke-miterlimit="10" d="M1725.6,733.8
			c-5.4-1.8-9.9-7.3-12.5-9.7c-2.3-2.1-1.7,10.2-3.5,9c-2-1.4-8.4-9.2-11.3-11"/>
		<path fill="none" stroke="#1f1f1f" stroke-width="4" stroke-linejoin="bevel" stroke-miterlimit="10" d="M1882,683.2
			c3.8,2.9,7,11.2,11.1,12.5c2.2,0.7,2-8.5,4-8.1c0.9,0.1,2.5,3.2,4.2,6.4c1.7,3.3,3.5,6.7,4.8,7.7"/>
		<path fill="none" stroke="#1f1f1f" stroke-width="4" stroke-linejoin="bevel" stroke-miterlimit="10" d="M1886.2,704.3
			c3.4-4.5,4.2-11.4,5.2-14.9c0.4-1.5,2,0,3.4,1.9c1.4,1.9,2.8,4.2,3.1,4.1c0.7-0.2,1.4-3.6,2.3-7.3c0.8-3.7,1.7-7.7,2.6-9.2"/>
	</g>
	<g>
		<path fill="none" stroke="#1f1f1f" stroke-width="4" stroke-miterlimit="10" d="M1941.7,689.1c1.9,0.5,4.3,0.9,7.1,1.6
			c2.8,0.7,5.9,1.5,9.1,3.1c3.2,1.5,6.5,3.8,9,7.2c2.5,3.4,4.2,7.8,4.6,12.4c0.3,2.3,0.3,4.6,0.1,7c-0.2,2.4-0.6,4.8-1.3,7.1
			c-0.7,2.3-1.6,4.6-2.8,6.7c-1.2,2.1-2.5,4-4,5.8c-3,3.5-6.4,6.3-9.8,8.4c-3.4,2.1-6.7,3.6-9.7,4.5c-5.2,1.6-10.3,2.5-15.1,3.2
			c-4.8,0.7-9.5,1-14,1.3c-9,0.4-17.5,0.4-25.9,0.3c-16.9-0.2-33.9-0.7-55,1c-11.1,0.9-19.3,2.1-26,3.5c-6.7,1.4-11.9,2.8-17.1,4.4
			c-5.1,1.7-10.2,3.4-16.6,6c-6.3,2.6-14,5.9-23.6,11.8"/>
		<path fill="none" stroke="#1f1f1f" stroke-width="4" stroke-linejoin="bevel" stroke-miterlimit="10" d="M1898.1,745.9
			c-2.4,3.7-3,11.6-6.7,14c-2,1.3-2.8-6.1-5.1-4.5c-1.4,1-3.4,11.3-5.9,13.8"/>
		<path fill="none" stroke="#1f1f1f" stroke-width="4" stroke-linejoin="bevel" stroke-miterlimit="10" d="M1902.4,767.8
			c-6.6-3.7-8.1-10.2-10-13.3c-1.7-2.7-3.9,8.2-5.7,7.1c-2.3-1.4-5.6-10.6-7.9-13.1"/>
		<path fill="none" stroke="#1f1f1f" stroke-width="4" stroke-linejoin="bevel" stroke-miterlimit="10" d="M1979.2,739.6
			c-0.1-1.4-0.7-2.8-1.5-4.1c-0.8-1.3-1.9-2.5-2.9-3.6c-1.1-1.2-2.1-2.3-3-3.4c-0.9-1.1-1.6-2.2-1.8-3.3c-0.3-1.2,1.4-1.7,3.2-2.4
			c1.7-0.7,3.6-1.6,3.3-2.8c-0.2-1-3.2-2.3-6.5-3.5c-1.6-0.6-3.3-1.1-4.8-1.7c-1.5-0.5-2.7-1-3.3-1.5"/>
		<path fill="none" stroke="#1f1f1f" stroke-width="4" stroke-linejoin="bevel" stroke-miterlimit="10" d="M1959.8,730.1
			c1.3-0.4,2.5-0.6,4-0.9c1.4-0.3,2.9-0.4,4.3-0.7c2.8-0.4,5.5-0.9,7.4-1.6c1.6-0.6-0.2-2.6-2.4-4.3c-2.1-1.7-4.5-3.1-3.6-3.7
			c0.5-0.3,1.5-0.7,2.8-1.3c1.2-0.6,2.7-1.3,4.2-2.1c1.5-0.8,2.9-1.7,4.2-2.7c1.3-0.9,2.2-2.1,2.8-2.9"/>
		<path fill="none" stroke="#1f1f1f" stroke-width="4" stroke-linejoin="bevel" stroke-miterlimit="10" d="M1808.9,772.7
			c-1.8-1.4-3.6-4.2-5.5-6.7c-1.9-2.6-3.9-4.9-6.1-5.4c-2.4-0.5-1.4,8.6-3.5,8.5c-0.9,0-2.8-2.9-5-5.9c-2.2-3-4.7-6.1-6.5-6.7"/>
		<path fill="none" stroke="#1f1f1f" stroke-width="4" stroke-linejoin="bevel" stroke-miterlimit="10" d="M1804.4,751.6
			c-3.8,4.6-4.4,11.6-5.1,15.2c-0.3,1.5-2,0.1-3.6-1.6c-1.6-1.8-3.3-3.8-3.6-3.7c-0.7,0.3-1.2,3.8-1.5,7.6c-0.3,3.8-0.5,7.9-1.1,9.5
			"/>
	</g>
</g>
</svg>
